<svg width="81" height="54" viewBox="0 0 81 54" fill="none" xmlns="http://www.w3.org/2000/svg">
<path fill-rule="evenodd" clip-rule="evenodd" d="M0.306671 33.4431V0.613647C2.51576 0.613647 3.68167 2.6591 3.98849 3.68183V14.7273H7.97712C9.51121 14.7273 13.193 15.6477 15.3407 17.7954C16.4657 18.8182 18.4089 21.1704 18.7157 24.8523L18.9903 30.0682H23.318V0.613647C26.018 0.613647 27.1021 2.6591 27.3066 3.68183V30.0682H61.9771L73.6361 31.6022C73.8816 32.5841 73.1248 33.2386 72.7157 33.4431H0.306671ZM59.2157 10.7386C44.9793 9.51136 39.7839 19.8409 38.9657 25.1591L65.9657 30.0682L73.9429 31.2954V25.4659C72.7157 17.3659 66.068 13.0909 62.8975 11.9659L59.2157 10.7386ZM10.739 19.0227C8.77537 18.0409 5.42083 18 3.98901 18.1023V30.375H15.3413V25.159C15.0958 21.9681 12.1708 19.7386 10.739 19.0227ZM60.1366 13.5C57.7844 13.2955 52.4048 13.4387 49.7048 15.6478C48.0685 16.6705 44.7344 19.6977 44.4889 23.625H42.648C42.648 21.4773 44.1821 16.4455 50.3185 13.5C52.2617 12.7841 56.9457 11.7819 60.1366 13.5Z" fill="#F55A2C"/>
<path d="M31.9093 24.8522C31.2957 26.3862 32.8298 26.5908 33.7502 26.3862C33.4434 27.6135 32.0116 27.3067 31.2957 26.9999C30.3752 26.3862 30.273 25.3635 30.3752 24.8522C30.6821 23.0112 32.8298 22.7044 32.8298 22.7044C34.6707 22.2953 36.0931 24.4055 36.2048 24.8522C36.8183 26.0793 37.7387 26.6929 38.659 27.3065L38.6593 27.3067H37.4321C36.4502 26.8158 35.1821 25.0567 34.6707 24.2385C33.1366 23.318 32.0116 24.2385 31.9093 24.8522Z" fill="#F35D2E"/>
<circle cx="60.4426" cy="10.4317" r="1.84091" fill="#F55A2C"/>
<circle cx="57.6817" cy="3.375" r="3.375" fill="#F55A2C"/>
<circle cx="65.045" cy="3.375" r="3.375" fill="#F55A2C"/>
<path fill-rule="evenodd" clip-rule="evenodd" d="M75.17 36.2045H71.4882V36.2045H66.5797V39.2727H71.4882V53.9999H75.17V39.2727H80.0797V36.2045H75.17V36.2045Z" fill="#F35D2E"/>
<path d="M76.7041 30.3749C77.195 29.1476 78.7495 29.0454 79.4654 29.1476L79.4654 28.2272L79.1586 28.2272C76.9495 27.9817 75.9882 29.1476 75.7836 29.7613C74.8018 31.234 76.1927 32.4203 77.0109 32.8294L75.7836 33.4431L76.3973 34.3635L80.3859 32.5226V31.6022L78.8518 31.909C76.8882 32.1544 76.6018 30.9885 76.7041 30.3749Z" fill="#F55A2C"/>
<path d="M34.6707 53.6931V36.2045C37.1252 36.2045 38.1479 37.8408 38.3525 38.659V50.6249H49.7047V52.4658C49.7047 53.2022 48.8865 53.5908 48.4775 53.6931H34.6707Z" fill="#F55A2C"/>
<path d="M51.2388 50.6249V36.2045C54.1843 36.2045 54.7161 37.6363 54.6138 38.3522L54.307 50.3181H61.3638V49.7045V37.7386C61.8547 36.2658 63.8183 36.1022 64.7388 36.2045V50.3181C64.4933 52.2817 62.5911 53.3863 61.6706 53.6931H54.307C52.3434 52.9567 51.4434 51.3408 51.2388 50.6249Z" fill="#F55A2C"/>
<path d="M76.0913 26.0796V0.920496C78.7913 0.429588 79.8754 2.55686 80.08 3.68186V26.0796H76.0913Z" fill="#F55A2C"/>
<path fill-rule="evenodd" clip-rule="evenodd" d="M34.6704 21.7839C36.1431 22.5203 37.125 23.7271 37.4318 24.2385C37.4318 22.5203 36.2045 21.2726 35.5909 20.8635C34.8545 20.3726 33.8522 19.4317 33.4431 19.0226C32.7068 18.2862 32.9318 16.8749 33.1363 16.2612C33.3818 15.0339 34.6704 14.9317 35.284 15.0339C36.5113 15.2794 36.5113 16.568 36.5113 16.568C36.8181 17.4885 36.409 18.818 36.2045 19.0226C37.1863 18.5317 37.6363 17.1817 37.7386 16.568C37.7386 14.7271 36.7159 13.9089 36.2045 13.4998C34.9772 12.7635 33.6477 13.193 33.1363 13.4998C30.9272 14.7271 30.9886 17.2839 31.2954 18.4089C31.5409 20.1271 33.6477 21.3748 34.6704 21.7839ZM0 43.2612V53.693H3.375V47.5566H12.8863V53.693H16.2613V42.3407C14.7886 37.4316 10.3295 36.2044 8.28408 36.2044C2.39318 36.4498 0.306818 41.0112 0 43.2612ZM3.06885 44.7952H13.5007C13.6029 43.3634 12.5802 40.3157 8.89839 39.5793H8.81631C8.86842 39.4891 8.89824 39.3844 8.89824 39.2727C8.89824 38.9338 8.62351 38.6591 8.28461 38.6591C7.9457 38.6591 7.67097 38.9338 7.67097 39.2727C7.67097 39.39 7.70389 39.4996 7.76097 39.5928C6.53074 39.7266 2.8392 40.8912 3.06885 44.7952ZM8.28416 40.4998C9.51143 40.8066 11.9046 41.9725 11.6592 44.1816H12.2728C12.4773 42.9543 11.9046 40.4384 7.97735 40.1929L8.28416 40.4998Z" fill="#F55A2C"/>
<path fill-rule="evenodd" clip-rule="evenodd" d="M18.1023 43.2045C18.1023 39.3385 21.2363 36.2045 25.1023 36.2045H25.8296C29.6956 36.2045 32.8296 39.3385 32.8296 43.2045V45.159C32.8296 48.0661 31.0574 50.5593 28.5345 51.6172V53.9999H24.8527V52.1546C21.1023 52.0232 18.1023 48.9414 18.1023 45.159V43.2045ZM21.1707 41.2726C21.1707 40.1681 22.0661 39.2726 23.1707 39.2726H27.7616C28.8662 39.2726 29.7616 40.1681 29.7616 41.2726V47.0908C29.7616 48.1954 28.8662 49.0908 27.7616 49.0908H23.1707C22.0661 49.0908 21.1707 48.1954 21.1707 47.0908V41.2726Z" fill="#F55A2C"/>
</svg>
